<svg xmlns="http://www.w3.org/2000/svg" viewBox="0 0 128 128" width="128" height="128" role="img" aria-label="octomon">
  <title>octomon</title>
  <!-- eight arms, drawn as probe bars of differing depth -->
  <g fill="#3FCF5C">
    <g transform="rotate(-14 22 64)"><rect x="18" y="60" width="8" height="44" rx="4"/></g>
    <g transform="rotate(-7 34 64)"><rect x="30" y="60" width="8" height="58" rx="4"/></g>
    <rect x="42" y="60" width="8" height="40" rx="4"/>
    <rect x="54" y="60" width="8" height="54" rx="4"/>
    <rect x="66" y="60" width="8" height="42" rx="4"/>
    <rect x="78" y="60" width="8" height="58" rx="4" fill="#E8B03A"/>
    <g transform="rotate(7 94 64)"><rect x="90" y="60" width="8" height="46" rx="4"/></g>
    <g transform="rotate(14 106 64)"><rect x="102" y="60" width="8" height="60" rx="4"/></g>
  </g>
  <!-- mantle -->
  <path d="M22 70 C22 42 38 18 64 18 C90 18 106 42 106 70 Z" fill="#3FCF5C"/>
  <!-- eyes, as terminal cursor blocks -->
  <rect x="44" y="38" width="11" height="18" rx="1.5" fill="#15181D"/>
  <rect x="73" y="38" width="11" height="18" rx="1.5" fill="#15181D"/>
</svg>
